<svg width="1200" height="900" viewBox="0 0 1200 900" fill="none" xmlns="http://www.w3.org/2000/svg">
  <rect width="1200" height="900" rx="48" fill="url(#paint0_linear_6_7)"/>
  <path d="M157 707C269.4 631.2 389.8 593.3 518.2 593.3C664.1 593.3 790.4 639.5 897.2 731.8" stroke="#8C6F4A" stroke-width="22" stroke-linecap="round"/>
  <path d="M261 177L333 318L481 275L563 438L725 364L863 509L974 420" stroke="#F7F5F0" stroke-width="18" stroke-linecap="round" stroke-linejoin="round" stroke-opacity="0.72"/>
  <circle cx="701" cy="414" r="90" fill="#4A3A2A" fill-opacity="0.1"/>
  <path d="M701 298C648.085 298 605 341.085 605 394C605 462.4 701 578 701 578C701 578 797 462.4 797 394C797 341.085 753.915 298 701 298Z" fill="#4A3A2A"/>
  <circle cx="701" cy="394" r="36" fill="#F7F5F0"/>
  <circle cx="280" cy="210" r="42" fill="#F7F5F0" fill-opacity="0.34"/>
  <circle cx="939" cy="668" r="58" fill="#F7F5F0" fill-opacity="0.28"/>
  <defs>
    <linearGradient id="paint0_linear_6_7" x1="113" y1="48" x2="1092" y2="855" gradientUnits="userSpaceOnUse">
      <stop stop-color="#EDE6DA"/>
      <stop offset="1" stop-color="#D8C7A6"/>
    </linearGradient>
  </defs>
</svg>
