<svg width="96" height="96" viewBox="0 0 96 96" fill="none" xmlns="http://www.w3.org/2000/svg">
  <rect width="96" height="96" rx="28" fill="url(#paint0_linear_1_3)"/>
  <rect x="10" y="10" width="76" height="76" rx="22" fill="url(#paint1_linear_1_3)" fill-opacity="0.86"/>
  <path d="M57.5 26H48.8V54.4C48.8 61.2 44.9 65.2 38.7 65.2C34.9 65.2 31.5 63.7 28.9 61L24 67C27.9 71.3 33.3 73.9 40.3 73.9C51.1 73.9 57.5 67.1 57.5 55.1V26Z" fill="#F7F5F0"/>
  <path d="M63.8 31.8C68.7 36.3 71.4 42.7 71.4 49.8C71.4 57.3 68.2 64 62.5 68.4" stroke="#F7F5F0" stroke-width="3.5" stroke-linecap="round"/>
  <defs>
    <linearGradient id="paint0_linear_1_3" x1="12" y1="8" x2="84" y2="96" gradientUnits="userSpaceOnUse">
      <stop stop-color="#4A3A2A"/>
      <stop offset="1" stop-color="#8C6F4A"/>
    </linearGradient>
    <linearGradient id="paint1_linear_1_3" x1="18" y1="18" x2="78" y2="84" gradientUnits="userSpaceOnUse">
      <stop stop-color="#B79A6B"/>
      <stop offset="1" stop-color="#8C6F4A"/>
    </linearGradient>
  </defs>
</svg>

