<svg width="900" height="1100" viewBox="0 0 900 1100" fill="none" xmlns="http://www.w3.org/2000/svg">
  <rect width="900" height="1100" fill="url(#paint0_linear_4_6)"/>
  <circle cx="450" cy="378" r="182" fill="#F7F5F0" fill-opacity="0.92"/>
  <path d="M293 809C293 722.291 363.291 652 450 652C536.709 652 607 722.291 607 809V1036H293V809Z" fill="#4A3A2A" fill-opacity="0.82"/>
  <path d="M336 403C336 340.039 387.039 289 450 289C512.961 289 564 340.039 564 403V472C564 534.961 512.961 586 450 586C387.039 586 336 534.961 336 472V403Z" fill="#E8D8C0"/>
  <path d="M290 316C290 263.771 332.771 221 385 221H515C567.229 221 610 263.771 610 316C610 346.559 595.742 373.651 573.577 390.93C567.759 324.242 512.02 272 444 272C376.152 272 320.524 323.982 314.488 390.422C299.22 373.219 290 351.382 290 316Z" fill="#F7F5F0"/>
  <path d="M264 1032C310.248 959.233 372.248 922.85 450 922.85C527.752 922.85 589.752 959.233 636 1032" stroke="#B79A6B" stroke-width="18" stroke-linecap="round"/>
  <defs>
    <linearGradient id="paint0_linear_4_6" x1="66" y1="44" x2="813" y2="1043" gradientUnits="userSpaceOnUse">
      <stop stop-color="#EDE6DA"/>
      <stop offset="1" stop-color="#B79A6B"/>
    </linearGradient>
  </defs>
</svg>

